PathFileType	4	(X/Y/Z)	D:\Share\Shared_Data\Ergonomics\Sit To Stand Pertubation\S1\Perturbed_NoHarness.trc
DataRate	CameraRate	NumFrames	NumMarkers	Units	OrigDataRate	OrigDataStartFrame	OrigNumFrames	
100	100	9	18	m	100	3329	231
Frame#	Time	L_ASIS			R_ASIS			R_Pelvis			V_Sacral			L_Pelvis			Clavical			R_Acromium			L_Acromium			Sternum			Torso			R_Thigh_Med			R_Thigh_Lat			R_Thigh			R_Shank_Med			R_Shank_Lat			R_Shank			R_Heel			R_Toe			
		X1	Y1	Z1	X2	Y2	Z2	X3	Y3	Z3	X4	Y4	Z4	X5	Y5	Z5	X6	Y6	Z6	X7	Y7	Z7	X8	Y8	Z8	X9	Y9	Z9	X10	Y10	Z10	X11	Y11	Z11	X12	Y12	Z12	X13	Y13	Z13	X14	Y14	Z14	X15	Y15	Z15	X16	Y16	Z16	X17	Y17	Z17	X18	Y18	Z18	

3329	33.28	0.045919392	0.64196143	-0.095901192	-0.045531662	0.63484381	0.14078673	0.038334656	0.63075165	0.10616566	-0.15179565	0.57175977	0.016550135	-0.050881691	0.63190509	-0.13382365	0.14395757	0.93379974	0.005524148	0.10764581	1.0205858	0.15380655	0.053761765	0.99364142	-0.1865732	0.13258569	0.95092474	0.10679257	0.14533684	0.94001678	-0.054356316	0.32620361	0.41339667	0.042748566	0.32400479	0.43715848	0.16355881	0.19342645	0.55235089	0.11388368	0.3418624	0.095468254	0.1068088	0.31728827	0.099634651	0.18467451	0.31927652	0.31226538	0.18782056	0.27290576	0.043342297	0.13987137	0.4773154	0.049253201	0.14684232
3330	33.29	0.047342041	0.64114911	-0.095763206	-0.044324242	0.63489075	0.14076839	0.039614658	0.62987836	0.10634304	-0.15120074	0.57240649	0.016614529	-0.04965028	0.63220496	-0.13363297	0.1503221	0.93094244	0.0059234324	0.11551752	1.0187375	0.15396941	0.060899441	0.9926911	-0.18591524	0.13912703	0.94857916	0.10710442	0.15183121	0.93786102	-0.053596745	0.32628522	0.41346896	0.042859772	0.32416711	0.43712204	0.16367226	0.19351421	0.55217938	0.11403304	0.34173441	0.095513298	0.10679424	0.31715784	0.099657295	0.18467281	0.31943271	0.31229279	0.1879212	0.27286227	0.04329966	0.139884	0.47727032	0.049172531	0.14678406
3331	33.3	0.04887664	0.64028363	-0.09561805	-0.042995903	0.63493481	0.14075165	0.040991932	0.62895264	0.10652367	-0.1505199	0.57312988	0.016684906	-0.048294731	0.632521	-0.13342955	0.15695337	0.92789258	0.006336719	0.12374255	1.0167309	0.15409755	0.068395538	0.9916463	-0.18534497	0.14597041	0.94607446	0.10740895	0.15861119	0.93557263	-0.052777332	0.32638428	0.41353238	0.042947239	0.32436322	0.43707709	0.16375499	0.19366391	0.55198969	0.11417006	0.34160559	0.095553909	0.10678775	0.31702457	0.099682503	0.18468402	0.31962033	0.31232404	0.18800685	0.27281058	0.043247688	0.13990573	0.47721494	0.049158749	0.14674051
3332	33.31	0.050536537	0.63936194	-0.095465744	-0.041535904	0.63498309	0.14073955	0.042474968	0.62797479	0.10670815	-0.14974188	0.57393958	0.016760561	-0.04680027	0.63285455	-0.1332117	0.16384436	0.92465668	0.0067565546	0.13231461	1.014557	0.15418285	0.076247391	0.99050293	-0.18487238	0.15311194	0.94340381	0.10769939	0.16567026	0.93313837	-0.051913246	0.32650137	0.41358539	0.043010178	0.32459399	0.43702356	0.16380536	0.19388136	0.55178638	0.11429407	0.34147571	0.095589218	0.10678899	0.31688882	0.099709595	0.18470801	0.31983994	0.31235846	0.1880759	0.27275024	0.043185867	0.13993671	0.47714999	0.049204498	0.14670995
3333	33.32	0.052337334	0.6383808	-0.095305656	-0.039932003	0.63504309	0.14073448	0.044073914	0.62694629	0.10689738	-0.14885336	0.57484631	0.016840397	-0.045149734	0.6332077	-0.13297719	0.17098721	0.92124536	0.0071743627	0.14122281	1.0122093	0.1542179	0.084448708	0.98925842	-0.18450044	0.16054433	0.94056226	0.10796885	0.17299861	0.93054553	-0.051023277	0.32663815	0.41362668	0.04304813	0.32486108	0.43696146	0.16382228	0.19417348	0.55157587	0.11440463	0.34134494	0.095618515	0.10679718	0.31675174	0.09973806	0.18474399	0.3200928	0.31239529	0.18812704	0.27268127	0.043114059	0.13997682	0.47707706	0.049299583	0.14668982
3334	33.33	0.054296284	0.63733826	-0.095136497	-0.038170872	0.63512292	0.14073808	0.045800247	0.62587	0.10709264	-0.14783891	0.57586237	0.016922815	-0.043323975	0.63358313	-0.1327235	0.17837372	0.91767169	0.0075807376	0.15045183	1.0096835	0.15419615	0.092989723	0.98791095	-0.18422511	0.16825708	0.93754791	0.1082104	0.18058315	0.92778241	-0.050128899	0.326798	0.413655	0.043060886	0.32516757	0.43689078	0.16380516	0.19454816	0.55136572	0.1145015	0.34121426	0.095641266	0.10681094	0.31661517	0.09976757	0.18479059	0.32038162	0.31243396	0.18815915	0.27260403	0.043032578	0.14002579	0.47699847	0.049432266	0.14667723
3335	33.34	0.056431519	0.63623364	-0.094956398	-0.036238663	0.63523181	0.14075134	0.047666237	0.62475067	0.10729535	-0.14668147	0.57700012	0.017005621	-0.041302578	0.63398401	-0.13244803	0.18599574	0.91395038	0.0079658608	0.15998242	1.0069779	0.15411226	0.10185732	0.98646057	-0.18403587	0.17623645	0.93436182	0.10841727	0.18840762	0.92483966	-0.049252972	0.32698587	0.41366946	0.043048473	0.32551804	0.43681146	0.16375395	0.19501434	0.55116522	0.11458456	0.34108545	0.095657082	0.10682842	0.31648175	0.099797981	0.1848459	0.32071057	0.31247385	0.18817134	0.2725195	0.042942261	0.14008319	0.47691675	0.049590691	0.14666936
3336	33.35	0.05876107	0.63506763	-0.094762962	-0.034121746	0.63537903	0.14077448	0.049684284	0.62359534	0.10750703	-0.14536301	0.57827185	0.017085911	-0.039064762	0.63441418	-0.13214822	0.19384543	0.9100965	0.0083200274	0.16979193	1.004094	0.15396234	0.11103519	0.98490875	-0.18391699	0.18446556	0.93100836	0.10858291	0.19645297	0.92171094	-0.048418205	0.32720895	0.4136691	0.043011074	0.32591879	0.43672336	0.16366925	0.19558154	0.55098419	0.11465363	0.34096124	0.095665718	0.10684726	0.31635516	0.099829262	0.18490753	0.32108517	0.31251434	0.18816286	0.27242908	0.04284446	0.14014836	0.47683487	0.049764256	0.14666383
3337	33.36	0.061301865	0.63384357	-0.094553513	-0.031807528	0.63557465	0.14080692	0.051866146	0.6224129	0.10772915	-0.1438651	0.57968811	0.017160028	-0.036590477	0.63487714	-0.13182188	0.20191521	0.90612457	0.0086342373	0.17985454	1.0010367	0.15374408	0.120504	0.98325848	-0.18384921	0.19292442	0.9274953	0.10870137	0.20469775	0.9183938	-0.047645485	0.32747665	0.41365332	0.04294894	0.3263779	0.43662592	0.16355205	0.19625977	0.55083289	0.11470846	0.34084531	0.095666985	0.10686478	0.3162399	0.099861511	0.18497269	0.32151251	0.31255481	0.18813321	0.27233463	0.042741051	0.14022054	0.47675555	0.049944641	0.14665895
